<svg width="28" height="28" viewBox="0 0 28 28" fill="none" xmlns="http://www.w3.org/2000/svg">
<circle cx="14" cy="14" r="14" fill="#F1EADC"/>
<path d="M10.1955 11.699C10.2655 11.2137 10.4008 10.789 10.6015 10.425C10.8021 10.0563 11.0518 9.75067 11.3505 9.508C11.6538 9.26067 11.9991 9.07633 12.3865 8.955C12.7785 8.829 13.1985 8.766 13.6465 8.766C14.1131 8.766 14.5331 8.83367 14.9065 8.969C15.2845 9.09967 15.6065 9.284 15.8725 9.522C16.1385 9.75533 16.3415 10.0307 16.4815 10.348C16.6261 10.6653 16.6985 11.0083 16.6985 11.377C16.6985 11.699 16.6611 11.9837 16.5865 12.231C16.5165 12.4737 16.4138 12.686 16.2785 12.868C16.1431 13.05 15.9751 13.204 15.7745 13.33C15.5738 13.456 15.3475 13.561 15.0955 13.645C15.7021 13.8363 16.1548 14.128 16.4535 14.52C16.7521 14.912 16.9015 15.4043 16.9015 15.997C16.9015 16.501 16.8081 16.9467 16.6215 17.334C16.4348 17.7213 16.1828 18.048 15.8655 18.314C15.5481 18.5753 15.1795 18.7737 14.7595 18.909C14.3441 19.0443 13.9031 19.112 13.4365 19.112C12.9278 19.112 12.4845 19.0537 12.1065 18.937C11.7285 18.8203 11.3995 18.6477 11.1195 18.419C10.8395 18.1903 10.6015 17.9103 10.4055 17.579C10.2095 17.2477 10.0415 16.865 9.90145 16.431L10.6645 16.116C10.8651 16.032 11.0518 16.011 11.2245 16.053C11.4018 16.0903 11.5301 16.1837 11.6095 16.333C11.6935 16.4963 11.7845 16.6573 11.8825 16.816C11.9851 16.9747 12.1065 17.117 12.2465 17.243C12.3865 17.3643 12.5498 17.4647 12.7365 17.544C12.9278 17.6187 13.1541 17.656 13.4155 17.656C13.7095 17.656 13.9661 17.6093 14.1855 17.516C14.4048 17.418 14.5868 17.292 14.7315 17.138C14.8808 16.984 14.9905 16.8137 15.0605 16.627C15.1351 16.4357 15.1725 16.2443 15.1725 16.053C15.1725 15.8103 15.1468 15.591 15.0955 15.395C15.0441 15.1943 14.9368 15.024 14.7735 14.884C14.6101 14.744 14.3745 14.6343 14.0665 14.555C13.7631 14.4757 13.3548 14.436 12.8415 14.436V13.204C13.2661 13.1993 13.6185 13.1597 13.8985 13.085C14.1785 13.0103 14.4001 12.9077 14.5635 12.777C14.7315 12.6417 14.8481 12.4807 14.9135 12.294C14.9788 12.1073 15.0115 11.902 15.0115 11.678C15.0115 11.202 14.8785 10.8403 14.6125 10.593C14.3465 10.3457 13.9918 10.222 13.5485 10.222C13.3431 10.222 13.1541 10.2523 12.9815 10.313C12.8088 10.369 12.6525 10.4507 12.5125 10.558C12.3771 10.6607 12.2628 10.782 12.1695 10.922C12.0761 11.062 12.0061 11.216 11.9595 11.384C11.8801 11.5987 11.7751 11.741 11.6445 11.811C11.5185 11.881 11.3388 11.8973 11.1055 11.86L10.1955 11.699Z" fill="black"/>
</svg>
