<svg width="169" height="19" viewBox="0 0 169 19" fill="none" xmlns="http://www.w3.org/2000/svg">
<path fill-rule="evenodd" clip-rule="evenodd" d="M32.6555 6.47319L32.6896 7.03791L32.12 6.96876C30.0467 6.70369 28.2353 5.80474 26.6974 4.29497L25.9455 3.54585L25.7519 4.09905C25.3418 5.33222 25.6038 6.63454 26.4582 7.51044C26.9139 7.99449 26.8113 8.06363 26.0253 7.77551C25.7519 7.68331 25.5126 7.61416 25.4899 7.64874C25.4101 7.72941 25.6835 8.77818 25.9 9.19308C26.1962 9.76933 26.7999 10.3341 27.4607 10.6683L28.0189 10.9334L27.3582 10.9449C26.7202 10.9449 26.6974 10.9564 26.7658 11.1984C26.9936 11.9475 27.8936 12.7428 28.8961 13.0885L29.6024 13.3305L28.9872 13.6993C28.0759 14.2295 27.005 14.5291 25.9341 14.5522C25.4215 14.5637 25 14.6098 25 14.6444C25 14.7596 26.3898 15.405 27.1987 15.6586C29.6252 16.4077 32.5074 16.085 34.6719 14.8057C36.2098 13.8953 37.7477 12.0858 38.4654 10.3341C38.8527 9.40053 39.2401 7.69484 39.2401 6.87656C39.2401 6.34642 39.2743 6.27727 39.9122 5.64339C40.2881 5.27459 40.6413 4.87122 40.7097 4.75597C40.8236 4.537 40.8122 4.537 40.2312 4.73292C39.2629 5.07867 39.1262 5.03257 39.6046 4.51395C39.9578 4.14515 40.3793 3.4767 40.3793 3.28077C40.3793 3.2462 40.2084 3.30382 40.0147 3.40755C39.8097 3.5228 39.354 3.69567 39.0122 3.7994L38.3971 3.99532L37.8389 3.615C37.5313 3.40755 37.0984 3.17705 36.8705 3.1079C36.2895 2.94655 35.401 2.9696 34.8769 3.154C33.4529 3.67262 32.5529 5.00952 32.6555 6.47319Z" fill="black"/>
<path fill-rule="evenodd" clip-rule="evenodd" d="M5.49775 17.7563V8.8771H7.9437L8.26784 5.81729H5.49775L5.50191 4.28582C5.50191 3.48777 5.57757 3.06016 6.72142 3.06016H8.25052V0H5.80423C2.86584 0 1.8316 1.48434 1.8316 3.98053V5.81763H0V8.87745H1.8316V17.7563H5.49775Z" fill="black"/>
<path fill-rule="evenodd" clip-rule="evenodd" d="M63.5449 2.00229C63.7039 2.00204 63.875 2.00211 64.0596 2.0022L64.3639 2.00229C66.8015 2.00229 67.0905 2.01105 68.0531 2.05489C68.9432 2.09568 69.4263 2.24473 69.7482 2.36995C70.1742 2.53578 70.478 2.734 70.7973 3.05421C71.1169 3.37442 71.3147 3.67937 71.4805 4.10632C71.6055 4.42843 71.7544 4.91256 71.7949 5.80456C71.8387 6.769 71.8482 7.05871 71.8482 9.50029C71.8482 11.9419 71.8387 12.2316 71.7949 13.196C71.7542 14.088 71.6055 14.5722 71.4805 14.8943C71.3151 15.3212 71.1169 15.6252 70.7973 15.9452C70.4778 16.2654 70.1744 16.4637 69.7482 16.6295C69.4267 16.7553 68.9432 16.904 68.0531 16.9447C67.0907 16.9886 66.8015 16.9981 64.3639 16.9981C61.9261 16.9981 61.6371 16.9886 60.6747 16.9447C59.7846 16.9036 59.3014 16.7545 58.9794 16.6293C58.5534 16.4635 58.249 16.2653 57.9295 15.945C57.61 15.6248 57.4122 15.3206 57.2463 14.8935C57.1213 14.5714 56.9724 14.0873 56.9319 13.1953C56.8881 12.2308 56.8794 11.9411 56.8794 9.49801C56.8794 7.0549 56.8881 6.76671 56.9319 5.80228C56.9726 4.91027 57.1213 4.42614 57.2463 4.10365C57.4118 3.67671 57.61 3.37175 57.9295 3.05154C58.249 2.73133 58.5534 2.53311 58.9794 2.3669C59.3013 2.24111 59.7846 2.09244 60.6747 2.05146C61.5169 2.01334 61.8433 2.00191 63.5449 2V2.00229ZM69.2373 3.52138C68.6324 3.52138 68.1417 4.01255 68.1417 4.61884C68.1417 5.22493 68.6324 5.71667 69.2373 5.71667C69.8421 5.71667 70.3329 5.22493 70.3329 4.61884C70.3329 4.01274 69.8421 3.521 69.2373 3.521V3.52138ZM59.6754 9.50215C59.6754 6.90753 61.7746 4.80389 64.3639 4.80389H64.3637C66.9529 4.80389 69.0516 6.90753 69.0516 9.50215C69.0516 12.0968 66.9531 14.1995 64.3639 14.1995C61.7746 14.1995 59.6754 12.0968 59.6754 9.50215Z" fill="black"/>
<path fill-rule="evenodd" clip-rule="evenodd" d="M64.364 6.45312C66.0447 6.45312 67.4073 7.81839 67.4073 9.50272C67.4073 11.1869 66.0447 12.5523 64.364 12.5523C62.6832 12.5523 61.3208 11.1869 61.3208 9.50272C61.3208 7.81839 62.6832 6.45313 64.364 6.45313V6.45312Z" fill="black"/>
<path fill-rule="evenodd" clip-rule="evenodd" d="M120.748 9.50629C120.748 14.2041 124.545 18.0135 129.23 18.0135C133.914 18.0135 137.712 14.2041 137.712 9.50629C137.712 4.80851 133.914 1 129.23 1C124.545 1 120.748 4.80851 120.748 9.50629ZM126.417 16.6851C123.558 15.5617 121.532 12.7718 121.532 9.50635C121.532 5.24774 124.973 1.7973 129.219 1.7973C133.464 1.7973 136.906 5.24774 136.906 9.50635C136.906 13.764 133.464 17.2154 129.219 17.2154C128.426 17.2154 127.662 17.0951 126.943 16.871C127.256 16.3589 127.724 15.5198 127.898 14.8501C127.992 14.4893 128.377 13.0178 128.377 13.0178C128.628 13.4971 129.36 13.9034 130.139 13.9034C132.457 13.9034 134.128 11.765 134.128 9.10818C134.128 6.56159 132.055 4.65551 129.389 4.65551C126.072 4.65551 124.31 6.88959 124.31 9.32139C124.31 10.4512 124.91 11.8598 125.869 12.3081C126.016 12.3755 126.094 12.3454 126.127 12.2042C126.138 12.161 126.165 12.0495 126.198 11.9158C126.246 11.7194 126.306 11.4752 126.341 11.3304C126.359 11.2521 126.35 11.1856 126.287 11.109C125.969 10.7227 125.716 10.012 125.716 9.34963C125.716 7.64947 126.999 6.00398 129.186 6.00398C131.075 6.00398 132.397 7.29413 132.397 9.14007C132.397 11.2256 131.347 12.6707 129.98 12.6707C129.226 12.6707 128.661 12.0457 128.842 11.2776C128.92 10.9464 129.025 10.6059 129.127 10.2748C129.308 9.68937 129.479 9.13343 129.479 8.71093C129.479 8.1187 129.162 7.62487 128.507 7.62487C127.734 7.62487 127.116 8.42484 127.116 9.49724C127.116 10.1797 127.346 10.6416 127.346 10.6416C127.346 10.6416 126.583 13.8716 126.444 14.4729C126.29 15.1398 126.35 16.0756 126.417 16.6851Z" fill="black"/>
<path fill-rule="evenodd" clip-rule="evenodd" d="M105.404 5.02023C105.198 4.22499 104.589 3.59878 103.816 3.38625C102.415 3 96.7982 3 96.7982 3C96.7982 3 91.1811 3 89.7803 3.38625C89.0074 3.59878 88.3987 4.22499 88.1922 5.02023C87.8169 6.46151 87.8169 9.46875 87.8169 9.46875C87.8169 9.46875 87.8169 12.4759 88.1922 13.9173C88.3987 14.7125 89.0074 15.3387 89.7803 15.5514C91.1811 15.9375 96.7982 15.9375 96.7982 15.9375C96.7982 15.9375 102.415 15.9375 103.816 15.5514C104.589 15.3387 105.198 14.7125 105.404 13.9173C105.779 12.4759 105.779 9.46875 105.779 9.46875C105.779 9.46875 105.779 6.46151 105.404 5.02023Z" fill="black" stroke="black"/>
<path fill-rule="evenodd" clip-rule="evenodd" d="M95.1143 12.5625V6.9375L99.6049 9.75011L95.1143 12.5625Z" fill="white"/>
<path fill-rule="evenodd" clip-rule="evenodd" d="M159.351 1H159.35C159.333 1 159.318 1 159.303 1.0002C159.187 1.00139 158.995 1.00327 158.977 1.00347C158.556 1.00347 157.714 1.0635 156.81 1.46666C156.293 1.69702 155.827 2.00849 155.427 2.39244C154.95 2.84993 154.561 3.41398 154.272 4.06917C153.848 5.02849 153.949 6.64434 154.029 7.94287L154.03 7.9449C154.038 8.08397 154.047 8.22918 154.056 8.37068C153.994 8.3995 153.893 8.42992 153.744 8.42992C153.505 8.42992 153.221 8.35277 152.9 8.20075C152.805 8.1563 152.697 8.13383 152.578 8.13383C152.387 8.13383 152.185 8.19068 152.01 8.29452C151.79 8.42501 151.648 8.60942 151.609 8.81387C151.584 8.94912 151.585 9.21644 151.879 9.48752C152.041 9.63676 152.279 9.77438 152.585 9.89678C152.666 9.92878 152.761 9.95934 152.863 9.99174C153.214 10.1044 153.745 10.2746 153.884 10.6039C153.954 10.7709 153.924 10.9906 153.794 11.2561C153.791 11.2633 153.787 11.2704 153.784 11.2779C153.752 11.3542 153.45 12.0451 152.83 12.7738C152.478 13.1882 152.09 13.5345 151.678 13.8034C151.175 14.1317 150.63 14.3463 150.06 14.4411C149.836 14.4783 149.676 14.6797 149.689 14.9087C149.693 14.9747 149.708 15.0405 149.734 15.1041L149.735 15.1053C149.826 15.3192 150.036 15.5008 150.377 15.6611C150.794 15.8567 151.418 16.0213 152.231 16.15C152.272 16.2289 152.315 16.4272 152.344 16.5629C152.375 16.7072 152.407 16.8555 152.453 17.0131C152.503 17.1838 152.631 17.3878 152.962 17.3878C153.087 17.3878 153.231 17.3593 153.398 17.3267C153.642 17.2783 153.976 17.2123 154.393 17.2123C154.624 17.2123 154.863 17.2329 155.104 17.2733C155.569 17.3514 155.969 17.6371 156.433 17.9679C157.111 18.452 157.879 19 159.052 19C159.084 19 159.116 18.999 159.147 18.9967C159.186 18.9986 159.234 19 159.285 19C160.458 19 161.226 18.4518 161.903 17.9681L161.905 17.9671C162.368 17.6367 162.768 17.3514 163.233 17.2733C163.473 17.2329 163.713 17.2123 163.944 17.2123C164.342 17.2123 164.657 17.2636 164.939 17.319C165.122 17.3555 165.265 17.3731 165.375 17.3731L165.385 17.3733H165.397C165.638 17.3733 165.816 17.2394 165.883 17.0051C165.928 16.8508 165.961 16.7059 165.992 16.5592C166.02 16.432 166.064 16.2281 166.105 16.1484C166.919 16.0194 167.542 15.8552 167.96 15.6596C168.3 15.5001 168.51 15.3186 168.601 15.1056C168.628 15.0418 168.644 14.9756 168.648 14.9082C168.661 14.6796 168.5 14.4778 168.276 14.4406C165.742 14.0188 164.6 11.3891 164.552 11.2774C164.549 11.2701 164.546 11.2628 164.542 11.2557C164.413 10.9901 164.383 10.7706 164.453 10.6034C164.591 10.2744 165.122 10.1042 165.474 9.99154C165.575 9.95919 165.671 9.92843 165.751 9.89658C166.097 9.75866 166.344 9.60902 166.507 9.4391C166.702 9.23653 166.74 9.04244 166.738 8.91543C166.732 8.60813 166.499 8.33506 166.129 8.20135C166.004 8.14916 165.861 8.12162 165.716 8.12162C165.617 8.12162 165.471 8.13531 165.333 8.20061C165.036 8.34071 164.77 8.41732 164.542 8.42823C164.421 8.42203 164.336 8.39549 164.281 8.37013C164.288 8.25027 164.296 8.12713 164.304 7.99873L164.307 7.94376C164.388 6.64439 164.489 5.0273 164.065 4.06728C163.775 3.40976 163.384 2.84427 162.905 2.38579C162.503 2.00159 162.037 1.69017 161.517 1.45996C160.614 1.05978 159.772 1 159.351 1Z" fill="black"/>
</svg>
